<?xml version="1.0" encoding="UTF-8" standalone="no"?>
<!DOCTYPE svg PUBLIC "-//W3C//DTD SVG 1.1//EN" "http://www.w3.org/Graphics/SVG/1.1/DTD/svg11.dtd">
<svg width="100%" height="100%" viewBox="0 0 5067 1287" version="1.1" xmlns="http://www.w3.org/2000/svg" xmlns:xlink="http://www.w3.org/1999/xlink" xml:space="preserve" xmlns:serif="http://www.serif.com/" style="fill-rule:evenodd;clip-rule:evenodd;stroke-linejoin:round;stroke-miterlimit:2;">
    <g transform="matrix(1.33333,0,0,1.33333,-1297.33,0)">
        <g transform="matrix(1.54466,0,0,0.475639,973,0)">
            <rect id="Artboard1" x="0" y="0" width="2460.09" height="2028.85" style="fill:none;"/>
            <clipPath id="_clip1">
                <rect id="Artboard11" serif:id="Artboard1" x="0" y="0" width="2460.09" height="2028.85"/>
            </clipPath>
            <g clip-path="url(#_clip1)">
                <g transform="matrix(0.647392,0,0,2.10244,496.828,-1583.18)">
                    <g transform="matrix(442.246,0,0,442.246,268.004,1083.41)">
                        <path d="M0.498,-0.521L0.498,-0.644L0.222,-0.644L0.222,-0.426L0.46,-0.426L0.46,-0.334L0.222,-0.334L0.222,-0.092L0.316,-0.092L0.316,-0L0.018,-0L0.018,-0.092L0.111,-0.092L0.111,-0.644L0.018,-0.644L0.018,-0.736L0.589,-0.736L0.589,-0.521L0.498,-0.521Z" style="fill:rgb(215,166,242);fill-rule:nonzero;"/>
                    </g>
                    <g transform="matrix(442.246,0,0,442.246,529.291,1083.41)">
                        <path d="M0.268,-0.079C0.313,-0.079 0.362,-0.101 0.415,-0.145L0.415,-0.423L0.324,-0.423L0.324,-0.513L0.516,-0.513L0.516,-0.09L0.604,-0.09L0.604,-0L0.415,-0L0.415,-0.059C0.356,-0.014 0.299,0.009 0.246,0.009C0.198,0.009 0.162,-0.006 0.139,-0.034C0.116,-0.063 0.105,-0.11 0.105,-0.177L0.105,-0.423L0.033,-0.423L0.033,-0.513L0.206,-0.513L0.206,-0.156C0.206,-0.129 0.211,-0.11 0.22,-0.098C0.23,-0.085 0.246,-0.079 0.268,-0.079Z" style="fill:rgb(215,166,242);fill-rule:nonzero;"/>
                    </g>
                    <g transform="matrix(442.246,0,0,442.246,806.127,1083.41)">
                        <path d="M0.527,-0.345L0.527,-0.09L0.613,-0.09L0.613,-0L0.426,-0L0.426,-0.339C0.426,-0.371 0.421,-0.394 0.412,-0.408C0.403,-0.422 0.387,-0.429 0.366,-0.429C0.321,-0.429 0.271,-0.407 0.215,-0.363L0.215,-0.09L0.303,-0.09L0.303,-0L0.025,-0L0.025,-0.09L0.115,-0.09L0.115,-0.423L0.025,-0.423L0.025,-0.513L0.215,-0.513L0.215,-0.451C0.278,-0.497 0.337,-0.52 0.392,-0.52C0.438,-0.52 0.472,-0.506 0.494,-0.478C0.516,-0.449 0.527,-0.405 0.527,-0.345Z" style="fill:rgb(215,166,242);fill-rule:nonzero;"/>
                    </g>
                    <g transform="matrix(442.246,0,0,442.246,1085.55,1083.41)">
                        <path d="M0.434,-0.476L0.434,-0.513L0.524,-0.513L0.524,-0.319L0.434,-0.319C0.43,-0.356 0.415,-0.385 0.389,-0.405C0.363,-0.424 0.333,-0.434 0.299,-0.434C0.27,-0.434 0.243,-0.426 0.22,-0.411C0.197,-0.395 0.179,-0.374 0.166,-0.347C0.153,-0.32 0.147,-0.291 0.147,-0.26C0.147,-0.206 0.161,-0.162 0.19,-0.128C0.219,-0.094 0.256,-0.077 0.303,-0.077C0.376,-0.077 0.427,-0.111 0.457,-0.178L0.541,-0.138C0.494,-0.036 0.413,0.015 0.299,0.015C0.248,0.015 0.202,0.003 0.163,-0.021C0.123,-0.045 0.092,-0.078 0.071,-0.12C0.049,-0.162 0.038,-0.209 0.038,-0.26C0.038,-0.31 0.049,-0.355 0.071,-0.396C0.093,-0.438 0.123,-0.469 0.162,-0.492C0.2,-0.515 0.243,-0.527 0.29,-0.527C0.346,-0.527 0.394,-0.51 0.434,-0.476Z" style="fill:rgb(215,166,242);fill-rule:nonzero;"/>
                    </g>
                    <g transform="matrix(442.246,0,0,442.246,1335.4,1083.41)">
                        <path d="M0.295,-0.513L0.295,-0.423L0.201,-0.423L0.201,-0.154C0.201,-0.126 0.204,-0.108 0.21,-0.099C0.216,-0.091 0.227,-0.087 0.241,-0.087C0.259,-0.087 0.277,-0.09 0.295,-0.096L0.295,-0.005C0.264,0.004 0.238,0.009 0.219,0.009C0.177,0.009 0.146,-0.002 0.128,-0.023C0.109,-0.045 0.1,-0.081 0.1,-0.133L0.1,-0.423L0.033,-0.423L0.033,-0.513L0.1,-0.513L0.1,-0.591L0.201,-0.683L0.201,-0.513L0.295,-0.513Z" style="fill:rgb(215,166,242);fill-rule:nonzero;"/>
                    </g>
                    <g transform="matrix(442.246,0,0,442.246,1479.64,1083.41)">
                        <path d="M0.212,-0.686C0.212,-0.669 0.206,-0.655 0.194,-0.643C0.182,-0.631 0.167,-0.625 0.151,-0.625C0.134,-0.625 0.12,-0.631 0.108,-0.643C0.097,-0.655 0.091,-0.669 0.091,-0.686C0.091,-0.703 0.097,-0.717 0.108,-0.729C0.12,-0.741 0.134,-0.747 0.151,-0.747C0.168,-0.747 0.183,-0.741 0.194,-0.729C0.206,-0.718 0.212,-0.703 0.212,-0.686ZM0.284,-0.09L0.284,-0L0.025,-0L0.025,-0.09L0.105,-0.09L0.105,-0.423L0.025,-0.423L0.025,-0.513L0.206,-0.513L0.206,-0.09L0.284,-0.09Z" style="fill:rgb(215,166,242);fill-rule:nonzero;"/>
                    </g>
                    <g transform="matrix(442.246,0,0,442.246,1615.04,1083.41)">
                        <path d="M0.577,-0.256C0.577,-0.206 0.565,-0.16 0.542,-0.119C0.518,-0.078 0.485,-0.045 0.444,-0.021C0.403,0.003 0.358,0.015 0.308,0.015C0.257,0.015 0.21,0.003 0.169,-0.021C0.128,-0.045 0.095,-0.078 0.073,-0.119C0.05,-0.16 0.038,-0.206 0.038,-0.256C0.038,-0.308 0.05,-0.354 0.073,-0.396C0.095,-0.437 0.127,-0.469 0.168,-0.492C0.209,-0.515 0.256,-0.527 0.308,-0.527C0.359,-0.527 0.404,-0.515 0.445,-0.49C0.486,-0.465 0.519,-0.432 0.542,-0.391C0.565,-0.35 0.577,-0.305 0.577,-0.256ZM0.308,-0.083C0.338,-0.083 0.366,-0.091 0.391,-0.106C0.416,-0.122 0.435,-0.143 0.449,-0.169C0.463,-0.196 0.47,-0.225 0.47,-0.256C0.47,-0.286 0.463,-0.315 0.449,-0.341C0.435,-0.368 0.416,-0.389 0.391,-0.405C0.366,-0.421 0.338,-0.429 0.307,-0.429C0.277,-0.429 0.25,-0.421 0.225,-0.406C0.2,-0.39 0.18,-0.368 0.166,-0.342C0.151,-0.315 0.144,-0.286 0.144,-0.256C0.144,-0.225 0.151,-0.197 0.166,-0.17C0.18,-0.143 0.2,-0.122 0.225,-0.106C0.25,-0.091 0.278,-0.083 0.308,-0.083Z" style="fill:rgb(215,166,242);fill-rule:nonzero;"/>
                    </g>
                    <g transform="matrix(442.246,0,0,442.246,1887.12,1083.41)">
                        <path d="M0.527,-0.345L0.527,-0.09L0.613,-0.09L0.613,-0L0.426,-0L0.426,-0.339C0.426,-0.371 0.421,-0.394 0.412,-0.408C0.403,-0.422 0.387,-0.429 0.366,-0.429C0.321,-0.429 0.271,-0.407 0.215,-0.363L0.215,-0.09L0.303,-0.09L0.303,-0L0.025,-0L0.025,-0.09L0.115,-0.09L0.115,-0.423L0.025,-0.423L0.025,-0.513L0.215,-0.513L0.215,-0.451C0.278,-0.497 0.337,-0.52 0.392,-0.52C0.438,-0.52 0.472,-0.506 0.494,-0.478C0.516,-0.449 0.527,-0.405 0.527,-0.345Z" style="fill:rgb(215,166,242);fill-rule:nonzero;"/>
                    </g>
                    <g transform="matrix(442.246,0,0,442.246,2166.55,1083.41)">
                        <path d="M0.349,-0.491L0.349,-0.513L0.437,-0.513L0.437,-0.343L0.349,-0.343L0.349,-0.374C0.32,-0.416 0.28,-0.437 0.229,-0.437C0.202,-0.437 0.181,-0.431 0.164,-0.419C0.147,-0.408 0.138,-0.393 0.138,-0.374C0.138,-0.357 0.145,-0.344 0.157,-0.335C0.17,-0.326 0.199,-0.317 0.244,-0.31L0.312,-0.297C0.413,-0.278 0.464,-0.229 0.464,-0.148C0.464,-0.101 0.446,-0.063 0.409,-0.034C0.372,-0.006 0.324,0.009 0.263,0.009C0.239,0.009 0.215,0.005 0.192,-0.002C0.169,-0.009 0.149,-0.017 0.134,-0.028L0.134,-0L0.044,-0L0.044,-0.176L0.134,-0.176L0.134,-0.158C0.139,-0.133 0.152,-0.114 0.175,-0.099C0.198,-0.084 0.224,-0.076 0.254,-0.076C0.287,-0.076 0.313,-0.082 0.332,-0.094C0.35,-0.105 0.36,-0.122 0.36,-0.145C0.36,-0.162 0.352,-0.174 0.337,-0.182C0.322,-0.191 0.292,-0.199 0.247,-0.208L0.195,-0.219C0.143,-0.23 0.105,-0.248 0.081,-0.273C0.057,-0.298 0.045,-0.331 0.045,-0.37C0.045,-0.402 0.054,-0.429 0.072,-0.452C0.089,-0.475 0.112,-0.492 0.14,-0.503C0.167,-0.514 0.196,-0.52 0.225,-0.52C0.274,-0.52 0.316,-0.51 0.349,-0.491Z" style="fill:rgb(215,166,242);fill-rule:nonzero;"/>
                    </g>
                    <g transform="matrix(442.246,0,0,442.246,268.004,1614.19)">
                        <path d="M0.672,-0.736L0.927,-0.736L0.927,-0.644L0.838,-0.644L0.838,-0.092L0.927,-0.092L0.927,-0L0.65,-0L0.65,-0.092L0.737,-0.092L0.737,-0.644L0.484,0.008L0.462,0.008L0.211,-0.644L0.211,-0.092L0.292,-0.092L0.292,-0L0.031,-0L0.031,-0.092L0.12,-0.092L0.12,-0.644L0.031,-0.644L0.031,-0.736L0.283,-0.736L0.477,-0.232L0.672,-0.736Z" style="fill:rgb(215,166,242);fill-rule:nonzero;"/>
                    </g>
                    <g transform="matrix(442.246,0,0,442.246,691.678,1614.19)">
                        <path d="M0.475,-0.332L0.475,-0.09L0.561,-0.09L0.561,-0L0.386,-0L0.386,-0.063C0.337,-0.015 0.283,0.009 0.223,0.009C0.192,0.009 0.163,0.001 0.136,-0.013C0.11,-0.028 0.089,-0.047 0.073,-0.072C0.058,-0.097 0.05,-0.124 0.05,-0.154C0.05,-0.186 0.059,-0.215 0.076,-0.24C0.093,-0.265 0.117,-0.285 0.146,-0.298C0.176,-0.312 0.206,-0.319 0.236,-0.319C0.286,-0.319 0.333,-0.304 0.376,-0.275L0.376,-0.33C0.376,-0.37 0.368,-0.399 0.351,-0.416C0.334,-0.433 0.306,-0.442 0.267,-0.442C0.24,-0.442 0.217,-0.437 0.198,-0.427C0.18,-0.417 0.165,-0.402 0.153,-0.382L0.056,-0.406C0.078,-0.446 0.107,-0.477 0.145,-0.497C0.182,-0.517 0.226,-0.527 0.277,-0.527C0.346,-0.527 0.396,-0.511 0.427,-0.48C0.459,-0.449 0.475,-0.399 0.475,-0.332ZM0.237,-0.069C0.286,-0.069 0.333,-0.09 0.376,-0.131L0.376,-0.191C0.332,-0.225 0.288,-0.242 0.244,-0.242C0.217,-0.242 0.194,-0.234 0.175,-0.217C0.156,-0.2 0.146,-0.179 0.146,-0.154C0.146,-0.129 0.154,-0.109 0.171,-0.093C0.188,-0.077 0.21,-0.069 0.237,-0.069Z" style="fill:rgb(215,166,242);fill-rule:nonzero;"/>
                    </g>
                    <g transform="matrix(442.246,0,0,442.246,948.216,1614.19)">
                        <path d="M0.225,-0.206L0.225,-0.09L0.337,-0.09L0.337,-0L0.022,-0L0.022,-0.09L0.125,-0.09L0.125,-0.423L0.022,-0.423L0.022,-0.513L0.205,-0.513L0.205,-0.397C0.226,-0.443 0.251,-0.475 0.281,-0.493C0.312,-0.511 0.355,-0.52 0.412,-0.52L0.435,-0.52L0.435,-0.418L0.413,-0.418C0.358,-0.418 0.318,-0.411 0.291,-0.396C0.264,-0.382 0.247,-0.361 0.238,-0.332C0.229,-0.303 0.225,-0.261 0.225,-0.206Z" style="fill:rgb(215,166,242);fill-rule:nonzero;"/>
                    </g>
                    <g transform="matrix(442.246,0,0,442.246,1135.44,1614.19)">
                        <path d="M0.398,-0.429L0.317,-0.429L0.317,-0.513L0.601,-0.513L0.601,-0.429L0.522,-0.429L0.33,-0.27L0.511,-0.09L0.601,-0.09L0.601,-0L0.468,-0L0.211,-0.259L0.211,-0.09L0.298,-0.09L0.298,-0L0.018,-0L0.018,-0.09L0.11,-0.09L0.11,-0.647L0.018,-0.647L0.018,-0.736L0.211,-0.736L0.211,-0.272L0.398,-0.429Z" style="fill:rgb(215,166,242);fill-rule:nonzero;"/>
                    </g>
                    <g transform="matrix(442.246,0,0,442.246,1408.38,1614.19)">
                        <path d="M0.58,-0.231L0.15,-0.231C0.156,-0.182 0.175,-0.143 0.207,-0.115C0.239,-0.086 0.278,-0.072 0.324,-0.072C0.358,-0.072 0.389,-0.079 0.418,-0.093C0.447,-0.107 0.472,-0.128 0.491,-0.157L0.58,-0.117C0.552,-0.074 0.515,-0.041 0.47,-0.018C0.425,0.004 0.375,0.015 0.322,0.015C0.266,0.015 0.217,0.004 0.174,-0.02C0.131,-0.043 0.098,-0.075 0.074,-0.116C0.05,-0.158 0.038,-0.204 0.038,-0.256C0.038,-0.307 0.05,-0.354 0.073,-0.395C0.097,-0.436 0.129,-0.469 0.17,-0.492C0.211,-0.515 0.257,-0.527 0.306,-0.527C0.36,-0.527 0.407,-0.515 0.448,-0.491C0.488,-0.467 0.519,-0.433 0.542,-0.388C0.566,-0.344 0.578,-0.292 0.58,-0.231ZM0.308,-0.443C0.27,-0.443 0.237,-0.43 0.208,-0.405C0.179,-0.379 0.161,-0.345 0.153,-0.303L0.474,-0.303C0.465,-0.345 0.445,-0.379 0.414,-0.405C0.383,-0.43 0.348,-0.443 0.308,-0.443Z" style="fill:rgb(215,166,242);fill-rule:nonzero;"/>
                    </g>
                    <g transform="matrix(442.246,0,0,442.246,1681.76,1614.19)">
                        <path d="M0.295,-0.513L0.295,-0.423L0.201,-0.423L0.201,-0.154C0.201,-0.126 0.204,-0.108 0.21,-0.099C0.216,-0.091 0.227,-0.087 0.241,-0.087C0.259,-0.087 0.277,-0.09 0.295,-0.096L0.295,-0.005C0.264,0.004 0.238,0.009 0.219,0.009C0.177,0.009 0.146,-0.002 0.128,-0.023C0.109,-0.045 0.1,-0.081 0.1,-0.133L0.1,-0.423L0.033,-0.423L0.033,-0.513L0.1,-0.513L0.1,-0.591L0.201,-0.683L0.201,-0.513L0.295,-0.513Z" style="fill:rgb(215,166,242);fill-rule:nonzero;"/>
                    </g>
                    <g transform="matrix(442.246,0,0,442.246,1826.01,1614.19)">
                        <path d="M0.637,-0.254C0.637,-0.206 0.626,-0.161 0.604,-0.12C0.582,-0.078 0.552,-0.045 0.513,-0.021C0.475,0.003 0.433,0.015 0.386,0.015C0.318,0.015 0.257,-0.011 0.206,-0.064L0.206,0.14L0.306,0.14L0.306,0.23L0.012,0.23L0.012,0.14L0.105,0.14L0.105,-0.423L0.019,-0.423L0.019,-0.513L0.206,-0.513L0.206,-0.431C0.231,-0.461 0.259,-0.483 0.29,-0.498C0.321,-0.513 0.353,-0.52 0.388,-0.52C0.437,-0.52 0.48,-0.508 0.518,-0.484C0.555,-0.46 0.585,-0.428 0.606,-0.387C0.627,-0.347 0.637,-0.302 0.637,-0.254ZM0.385,-0.077C0.413,-0.077 0.438,-0.085 0.46,-0.102C0.483,-0.118 0.5,-0.14 0.513,-0.168C0.526,-0.196 0.532,-0.226 0.532,-0.257C0.532,-0.288 0.525,-0.317 0.511,-0.344C0.497,-0.371 0.478,-0.392 0.454,-0.407C0.429,-0.423 0.402,-0.431 0.371,-0.431C0.339,-0.431 0.311,-0.423 0.285,-0.406C0.26,-0.389 0.24,-0.367 0.226,-0.339C0.212,-0.312 0.205,-0.281 0.205,-0.248C0.205,-0.195 0.222,-0.153 0.256,-0.123C0.289,-0.092 0.332,-0.077 0.385,-0.077Z" style="fill:rgb(215,166,242);fill-rule:nonzero;"/>
                    </g>
                    <g transform="matrix(442.246,0,0,442.246,2124.44,1614.19)">
                        <path d="M0.289,-0.09L0.289,-0L0.019,-0L0.019,-0.09L0.11,-0.09L0.11,-0.647L0.019,-0.647L0.019,-0.736L0.211,-0.736L0.211,-0.09L0.289,-0.09Z" style="fill:rgb(215,166,242);fill-rule:nonzero;"/>
                    </g>
                    <g transform="matrix(442.246,0,0,442.246,2266.32,1614.19)">
                        <path d="M0.475,-0.332L0.475,-0.09L0.561,-0.09L0.561,-0L0.386,-0L0.386,-0.063C0.337,-0.015 0.283,0.009 0.223,0.009C0.192,0.009 0.163,0.001 0.136,-0.013C0.11,-0.028 0.089,-0.047 0.073,-0.072C0.058,-0.097 0.05,-0.124 0.05,-0.154C0.05,-0.186 0.059,-0.215 0.076,-0.24C0.093,-0.265 0.117,-0.285 0.146,-0.298C0.176,-0.312 0.206,-0.319 0.236,-0.319C0.286,-0.319 0.333,-0.304 0.376,-0.275L0.376,-0.33C0.376,-0.37 0.368,-0.399 0.351,-0.416C0.334,-0.433 0.306,-0.442 0.267,-0.442C0.24,-0.442 0.217,-0.437 0.198,-0.427C0.18,-0.417 0.165,-0.402 0.153,-0.382L0.056,-0.406C0.078,-0.446 0.107,-0.477 0.145,-0.497C0.182,-0.517 0.226,-0.527 0.277,-0.527C0.346,-0.527 0.396,-0.511 0.427,-0.48C0.459,-0.449 0.475,-0.399 0.475,-0.332ZM0.237,-0.069C0.286,-0.069 0.333,-0.09 0.376,-0.131L0.376,-0.191C0.332,-0.225 0.288,-0.242 0.244,-0.242C0.217,-0.242 0.194,-0.234 0.175,-0.217C0.156,-0.2 0.146,-0.179 0.146,-0.154C0.146,-0.129 0.154,-0.109 0.171,-0.093C0.188,-0.077 0.21,-0.069 0.237,-0.069Z" style="fill:rgb(215,166,242);fill-rule:nonzero;"/>
                    </g>
                    <g transform="matrix(442.246,0,0,442.246,2522.85,1614.19)">
                        <path d="M0.434,-0.476L0.434,-0.513L0.524,-0.513L0.524,-0.319L0.434,-0.319C0.43,-0.356 0.415,-0.385 0.389,-0.405C0.363,-0.424 0.333,-0.434 0.299,-0.434C0.27,-0.434 0.243,-0.426 0.22,-0.411C0.197,-0.395 0.179,-0.374 0.166,-0.347C0.153,-0.32 0.147,-0.291 0.147,-0.26C0.147,-0.206 0.161,-0.162 0.19,-0.128C0.219,-0.094 0.256,-0.077 0.303,-0.077C0.376,-0.077 0.427,-0.111 0.457,-0.178L0.541,-0.138C0.494,-0.036 0.413,0.015 0.299,0.015C0.248,0.015 0.202,0.003 0.163,-0.021C0.123,-0.045 0.092,-0.078 0.071,-0.12C0.049,-0.162 0.038,-0.209 0.038,-0.26C0.038,-0.31 0.049,-0.355 0.071,-0.396C0.093,-0.438 0.123,-0.469 0.162,-0.492C0.2,-0.515 0.243,-0.527 0.29,-0.527C0.346,-0.527 0.394,-0.51 0.434,-0.476Z" style="fill:rgb(215,166,242);fill-rule:nonzero;"/>
                    </g>
                    <g transform="matrix(442.246,0,0,442.246,2772.7,1614.19)">
                        <path d="M0.58,-0.231L0.15,-0.231C0.156,-0.182 0.175,-0.143 0.207,-0.115C0.239,-0.086 0.278,-0.072 0.324,-0.072C0.358,-0.072 0.389,-0.079 0.418,-0.093C0.447,-0.107 0.472,-0.128 0.491,-0.157L0.58,-0.117C0.552,-0.074 0.515,-0.041 0.47,-0.018C0.425,0.004 0.375,0.015 0.322,0.015C0.266,0.015 0.217,0.004 0.174,-0.02C0.131,-0.043 0.098,-0.075 0.074,-0.116C0.05,-0.158 0.038,-0.204 0.038,-0.256C0.038,-0.307 0.05,-0.354 0.073,-0.395C0.097,-0.436 0.129,-0.469 0.17,-0.492C0.211,-0.515 0.257,-0.527 0.306,-0.527C0.36,-0.527 0.407,-0.515 0.448,-0.491C0.488,-0.467 0.519,-0.433 0.542,-0.388C0.566,-0.344 0.578,-0.292 0.58,-0.231ZM0.308,-0.443C0.27,-0.443 0.237,-0.43 0.208,-0.405C0.179,-0.379 0.161,-0.345 0.153,-0.303L0.474,-0.303C0.465,-0.345 0.445,-0.379 0.414,-0.405C0.383,-0.43 0.348,-0.443 0.308,-0.443Z" style="fill:rgb(215,166,242);fill-rule:nonzero;"/>
                    </g>
                </g>
                <g transform="matrix(1.04634,0,0,3.39801,-341.124,-2735.26)">
                    <path d="M919.985,1102.17L622.776,1398.93L326.015,1101.72L623.224,804.96L919.985,1102.17ZM799.777,1102.08L623.133,925.168L446.223,1101.81L622.867,1278.72L799.777,1102.08Z" style="fill:rgb(215,166,242);"/>
                </g>
            </g>
        </g>
    </g>
</svg>
