<?xml version="1.0" encoding="UTF-8" standalone="no"?>
<!DOCTYPE svg PUBLIC "-//W3C//DTD SVG 1.1//EN" "http://www.w3.org/Graphics/SVG/1.1/DTD/svg11.dtd">
<svg width="100%" height="100%" viewBox="0 0 3807 978" version="1.1" xmlns="http://www.w3.org/2000/svg" xmlns:xlink="http://www.w3.org/1999/xlink" xml:space="preserve" xmlns:serif="http://www.serif.com/" style="fill-rule:evenodd;clip-rule:evenodd;stroke-linejoin:round;stroke-miterlimit:2;">
    <g transform="matrix(1,0,0,1,-958,0)">
        <g transform="matrix(1.54727,0,0,0.481821,958,0)">
            <rect id="Artboard1" x="0" y="0" width="2460.09" height="2028.85" style="fill:none;"/>
            <g id="Artboard11" serif:id="Artboard1">
                <g transform="matrix(0.646298,0,0,2.07546,495.988,-1562.86)">
                    <text x="268.004px" y="1083.41px" style="font-family:'Rockwell-Regular', 'Rockwell', serif;font-size:442.246px;fill:rgb(255,102,245);">F<tspan x="529.291px " y="1083.41px ">u</tspan>nctions</text>
                    <g transform="matrix(442.246,0,0,442.246,3046.08,1614.19)">
                    </g>
                    <text x="268.004px" y="1614.19px" style="font-family:'Rockwell-Regular', 'Rockwell', serif;font-size:442.246px;fill:rgb(255,102,245);">Mar<tspan x="1135.44px " y="1614.19px ">k</tspan>etplace</text>
                </g>
                <g transform="matrix(1.04772,0,0,3.36451,-341.572,-2708.29)">
                    <path d="M919.985,1102.17L622.776,1398.93L326.015,1101.72L623.224,804.96L919.985,1102.17ZM799.777,1102.08L623.133,925.168L446.223,1101.81L622.867,1278.72L799.777,1102.08Z" style="fill:rgb(255,102,245);"/>
                </g>
            </g>
        </g>
    </g>
</svg>
